<svg xmlns="http://www.w3.org/2000/svg" viewBox="27 5 198 198" fill="none" transform="scale(-1 1)"><g clip-path="url(#a)" fill="#fff"><path d="M36.861 136.057c3.66-2.264 8.585-1.158 10.845 2.571l.057.1 6.577 10.71c2.26 3.729 1.083 8.609-2.656 10.851s-8.64 1.058-10.901-2.671l-6.577-10.71c-2.26-3.729-1.084-8.609 2.655-10.851m134.101 36.981c2.061 3.842.57 8.635-3.282 10.678l-11.137 5.826c-3.853 2.043-8.669.547-10.73-3.295s-.57-8.635 3.282-10.678l11.137-5.826c3.852-2.043 8.59-.568 10.673 3.195 0 0-.022.078.057.1M39.353 40.47l80.69 45.335a7.3 7.3 0 0 1 2.85 9.85c-.372.737-.879 1.353-1.543 1.925-17.561 15.973-43.877 19.04-65.192 7.035C35.09 92.93 23.91 68.947 28.63 45.404c.84-3.965 4.644-6.442 8.649-5.673.727.117 1.41.39 2.073.74"/><path d="M217.737 89.663c4.021.102 7.237 3.423 7.145 7.427a10.7 10.7 0 0 1-.367 2.248c-8.091 22.614-29.885 37.42-53.985 36.733-24.456-.617-45.501-16.66-52.372-39.455-1.234-3.782.89-7.812 4.684-9.032.756-.296 1.626-.391 2.453-.331z"/><path d="M178.167 38.042c-2.686-.657-5.502-.845-8.268-.6-17.069 2.259-28.061 2.669-33.961 1.126-5.857-1.7-15.085-7.686-28.583-18.375-2.307-1.727-4.843-2.93-7.564-3.764-11.051-3.048-22.46 3.459-25.493 14.457L57.326 92.43c-8.992 32.606 10.207 66.354 42.847 75.523 32.805 8.879 66.51-10.281 75.501-42.886l16.972-61.544c3.033-10.999-3.428-22.433-14.479-25.48"/></g><defs><clipPath id="a"><path fill="#fff" d="m41.007.218 195.941 54.034-40.934 148.44L.073 148.66z"/></clipPath></defs></svg>