<svg xmlns="http://www.w3.org/2000/svg" viewBox="27 5 198 198" fill="none" transform="scale(-1 1)"><g clip-path="url(#a)"><path d="M36.861 136.057c3.66-2.264 8.585-1.158 10.845 2.571l.057.1 6.577 10.71c2.26 3.729 1.083 8.609-2.656 10.851s-8.64 1.058-10.901-2.671l-6.577-10.71c-2.26-3.729-1.084-8.609 2.655-10.851m134.101 36.981c2.061 3.842.57 8.635-3.282 10.678l-11.137 5.826c-3.853 2.043-8.669.547-10.73-3.295s-.57-8.635 3.282-10.678l11.137-5.826c3.852-2.043 8.59-.568 10.673 3.195 0 0-.022.078.057.1" fill="#f49000"/><path d="m39.353 40.47 80.69 45.335a7.3 7.3 0 0 1 2.85 9.85c-.372.737-.879 1.353-1.543 1.925-17.561 15.973-43.877 19.04-65.192 7.035C35.09 92.93 23.91 68.947 28.63 45.404c.84-3.965 4.644-6.442 8.649-5.673.727.117 1.41.39 2.073.74" fill="#58cc02"/><path d="M217.737 89.663c4.021.102 7.237 3.423 7.145 7.427a10.7 10.7 0 0 1-.367 2.248c-8.091 22.614-29.885 37.42-53.985 36.733-24.456-.617-45.501-16.66-52.372-39.455-1.234-3.782.89-7.812 4.684-9.032.756-.296 1.626-.391 2.453-.331z" fill="#58cc02"/><path d="M178.167 38.042c-2.686-.657-5.502-.845-8.268-.6-17.069 2.259-28.061 2.669-33.961 1.126-5.857-1.7-15.085-7.686-28.583-18.375-2.307-1.727-4.843-2.93-7.564-3.764-11.051-3.048-22.46 3.459-25.493 14.457L57.326 92.43c-8.992 32.606 10.207 66.354 42.847 75.523 32.805 8.879 66.51-10.281 75.501-42.886l16.972-61.544c3.033-10.999-3.428-22.433-14.479-25.48" fill="#58cc02"/><path d="m132.257 131.728-14.891-4.106c-.627-.173-1.326.221-1.499.846-.021.078-.064.234-.007.333a9.25 9.25 0 0 0 6.951 8.128c3.997 1.103 8.191-.343 10.292-3.373.328-.581.187-1.291-.397-1.62-.214-.143-.292-.164-.449-.208m-25.332-5.391c.329-.581.187-1.291-.318-1.598-.136-.122-.214-.143-.371-.186l-14.891-4.107c-.606-.251-1.183.009-1.434.612-.043.156-.108.39-.072.567.343 3.956 3.168 7.169 6.951 8.129 3.84 1.059 8.013-.309 10.135-3.417m8.759 14.418-14.892-4.106c-.627-.173-1.305.144-1.477.768-.043.156-.064.234-.029.411.343 3.956 3.168 7.169 6.951 8.128 3.998 1.103 8.17-.265 10.214-3.394.328-.581.187-1.292-.319-1.599-.135-.121-.292-.164-.448-.208M109.6 32.228l12.514 24.35c.547 1.075.081 2.458-1.053 2.9a1.7 1.7 0 0 1-.556.182c-9.019 1.207-17.392-5.131-18.625-14.117-.712-5.064 1.021-10.126 4.634-13.746 1.228-1.088 2.525-.899 3.086.431" fill="#89e219"/><path d="m99.474 34.388 12.2 24.264c.548 1.075.082 2.457-1.052 2.9-.2.112-.378.147-.556.182-9.02 1.206-17.314-5.11-18.547-14.096-.712-5.064 1.022-10.126 4.556-13.768.807-.784 2.168-.829 2.958-.023.214.143.328.342.441.541" fill="#89e219"/><path d="m103.723 40.092 1.725.475c12.226 3.372 19.47 15.945 16.114 28.114l-.021.078-3.937 14.274c-3.356 12.169-15.963 19.352-28.19 15.98l-.078-.022-1.724-.475c-12.227-3.372-19.47-15.945-16.115-28.114l.022-.078 3.936-14.274c3.356-12.169 16.042-19.33 28.268-15.958m57.921 6.488c1.22-.755 2.452-.331 2.892 1.133 2.202 8.833-3.208 17.75-12.072 19.921a16.62 16.62 0 0 1-14.323-3.11c-.947-.849-.994-2.205-.244-3.09a1.7 1.7 0 0 1 .442-.381z" fill="#89e219"/><path d="M169.23 53.624c.942-.663 2.296-.374 2.886.544.114.2.227.399.32.676 2.202 8.833-3.208 17.75-12.072 19.921a16.62 16.62 0 0 1-14.323-3.11c-.947-.849-.994-2.205-.245-3.09.122-.134.243-.268.443-.381z" fill="#89e219"/><path d="M162.663 56.345c12.226 3.372 19.448 16.023 16.093 28.192l-3.937 14.274c-3.356 12.169-15.963 19.352-28.19 15.98l-.078-.022-1.724-.475c-12.227-3.372-19.47-15.945-16.115-28.114l.022-.078 3.936-14.274c3.356-12.169 15.963-19.352 28.19-15.98l.078.022z" fill="#89e219"/><path d="M142.719 58.316c-7.699 4.676-17.739 2.243-22.453-5.436l-.512-.897c-4.071 14.154-7.556 26.79-10.475 37.988l11.464 3.078 11.421 3.233c3.312-11.09 6.818-23.804 10.555-37.966" fill="#89e219"/><path d="M101.677 48.425c9.013 2.485 14.302 11.75 11.828 20.72l-2.689 9.75c-2.709 8.906-12.112 13.951-20.982 11.253-8.657-2.555-13.775-11.52-11.544-20.222l2.689-9.75c2.452-8.893 11.663-14.159 20.62-11.773z" fill="#fff"/><path d="M101.392 58.334c4.311 1.189 6.813 5.572 5.63 9.862l-2.323 8.424c-1.34 4.247-5.77 6.55-10.06 5.284-4.032-1.28-6.42-5.464-5.459-9.563l2.323-8.424c1.24-4.191 5.635-6.672 9.889-5.583" fill="#4b4b4b"/><path d="M95.094 56.094a5 5 0 0 1 3.525 6.176c-.731 2.652-3.528 4.23-6.193 3.496s-4.257-3.524-3.525-6.176 3.45-4.253 6.114-3.518zm65.052 8.455c9.013 2.485 14.302 11.75 11.828 20.72l-2.689 9.75c-2.709 8.906-12.112 13.951-20.983 11.253-8.656-2.555-13.774-11.52-11.543-20.222l2.689-9.75c2.452-8.893 11.663-14.159 20.619-11.773z" fill="#fff"/><path d="M155.314 73.204c4.311 1.189 6.813 5.572 5.63 9.862l-2.324 8.425c-1.339 4.246-5.77 6.55-10.059 5.283-4.033-1.28-6.421-5.463-5.459-9.563l2.323-8.424c1.24-4.19 5.635-6.672 9.889-5.583" fill="#4b4b4b"/><path d="M148.076 70.705a5.003 5.003 0 0 1 3.526 6.176c-.731 2.652-3.528 4.23-6.193 3.496s-4.257-3.524-3.526-6.176c.632-2.596 3.35-4.197 6.193-3.496q-.117-.033 0 0" fill="#fff"/><path d="M135.015 94.214c13.668-1.855 25.865-2.352 36.179-1.523 0 0-2.709 17.467-16.66 17.901-17.878.609-19.519-16.378-19.519-16.378m-52.06-3.277c-11.835-7.545-5.129-23.91-5.129-23.91 9.302 4.496 19.577 11.275 30.285 19.851.021-.078-10.095 13.668-25.156 4.059" fill="#89e219"/><path d="M124.137 81.058c4.624 1.275 7.353 6.057 6.162 10.68l-.021.078-3.85 13.963c-1.27 4.602-6.086 7.387-10.788 6.09-4.624-1.275-7.432-6.079-6.142-10.759l3.851-13.962c1.347-4.58 6.142-7.288 10.788-6.09" fill="#f49000"/><path d="M123.232 84.334c3.605.994 5.709 4.68 4.72 8.268l-2.56 9.282c-.99 3.588-4.685 5.675-8.291 4.681-3.605-.995-5.631-4.659-4.72-8.269l2.56-9.282c.968-3.51 4.664-5.596 8.291-4.68" fill="#b66e28"/><path d="m121.426 90.886 11.802 1.24c.257-.013.457-.126.443-.381.666-6.7-4.342-12.697-11.092-13.299-5.096-.482-9.99 2.281-12.186 6.88-.065.234.028.51.184.554z" fill="#ffc200"/><path d="M125.885 84.813c-.157-.043-.314-.086-.449-.208a8.1 8.1 0 0 0-4.232-1.167c-1.005-.025-1.695-.887-1.672-1.888.08-.901.786-1.63 1.635-1.647 2.188.016 4.304.6 6.113 1.686.876.493 1.067 1.637.595 2.43-.429.637-1.206 1.01-1.99.794" fill="#ffde00"/></g><defs><clipPath id="a"><path fill="#fff" d="m41.007.218 195.941 54.034-40.934 148.44L.073 148.66z"/></clipPath></defs></svg>
