<svg data-name="Layer 1" xmlns="http://www.w3.org/2000/svg" width="156" height="156" viewBox="112.131 115 155.738 150"><path d="m265.264 174.372-.213-.558-21.2-55.309a5.48 5.48 0 0 0-2.176-2.627 5.64 5.64 0 0 0-6.531.348 5.57 5.57 0 0 0-1.875 2.854l-14.314 43.806h-57.91l-14.312-43.806a5.57 5.57 0 0 0-1.875-2.854 5.64 5.64 0 0 0-6.531-.348 5.48 5.48 0 0 0-2.178 2.627l-21.198 55.313-.214.554c-6.282 16.386-.93 34.908 13.059 45.488q.038.026.076.056l.187.141 32.29 24.174 15.972 12.09 9.72 7.35a6.56 6.56 0 0 0 7.92 0l9.72-7.35 15.967-12.09 32.482-24.315.085-.066c13.978-10.58 19.327-29.096 13.05-45.478" style="fill:#fff"/></svg>